<mxfile host="app.diagrams.net" agent="Mozilla/5.0 (Windows NT 10.0; Win64; x64) AppleWebKit/537.36 (KHTML, like Gecko) Chrome/134.0.0.0 Safari/537.36" version="26.1.0">
  <diagram name="第 1 页" id="FZAtXH--1JHFpSCo6OQT">
    <mxGraphModel dx="2227" dy="3025" grid="1" gridSize="10" guides="1" tooltips="1" connect="1" arrows="1" fold="1" page="1" pageScale="1" pageWidth="827" pageHeight="1169" math="0" shadow="0">
      <root>
        <mxCell id="0" />
        <mxCell id="1" parent="0" />
        <mxCell id="ir-GsV6Cq0Wgvs_C2lxC-22" value="&lt;span style=&quot;font-size: 24px;&quot;&gt;用户&lt;/span&gt;" style="shape=umlActor;verticalLabelPosition=bottom;verticalAlign=top;html=1;outlineConnect=0;" parent="1" vertex="1">
          <mxGeometry x="-50" y="-1436" width="50" height="110" as="geometry" />
        </mxCell>
        <mxCell id="ir-GsV6Cq0Wgvs_C2lxC-27" value="&lt;font style=&quot;font-size: 18px;&quot;&gt;旅游路线&lt;/font&gt;" style="ellipse;whiteSpace=wrap;html=1;" parent="1" vertex="1">
          <mxGeometry x="310" y="-1610" width="120" height="64" as="geometry" />
        </mxCell>
        <mxCell id="ir-GsV6Cq0Wgvs_C2lxC-29" value="&lt;font style=&quot;font-size: 18px;&quot;&gt;车票信息&lt;/font&gt;" style="ellipse;whiteSpace=wrap;html=1;" parent="1" vertex="1">
          <mxGeometry x="310" y="-1500" width="120" height="64" as="geometry" />
        </mxCell>
        <mxCell id="ir-GsV6Cq0Wgvs_C2lxC-30" value="&lt;font style=&quot;font-size: 18px;&quot;&gt;景点信息&lt;/font&gt;" style="ellipse;whiteSpace=wrap;html=1;" parent="1" vertex="1">
          <mxGeometry x="310" y="-1390" width="120" height="64" as="geometry" />
        </mxCell>
        <mxCell id="ir-GsV6Cq0Wgvs_C2lxC-31" value="&lt;font style=&quot;font-size: 18px;&quot;&gt;酒店信息&lt;/font&gt;" style="ellipse;whiteSpace=wrap;html=1;" parent="1" vertex="1">
          <mxGeometry x="310" y="-1300" width="120" height="64" as="geometry" />
        </mxCell>
        <mxCell id="ir-GsV6Cq0Wgvs_C2lxC-32" value="&lt;font style=&quot;font-size: 18px;&quot;&gt;美食信息&lt;/font&gt;" style="ellipse;whiteSpace=wrap;html=1;" parent="1" vertex="1">
          <mxGeometry x="310" y="-1200" width="120" height="64" as="geometry" />
        </mxCell>
        <mxCell id="ir-GsV6Cq0Wgvs_C2lxC-37" value="" style="endArrow=none;html=1;rounded=0;exitX=1;exitY=0.3333333333333333;exitDx=0;exitDy=0;exitPerimeter=0;entryX=0;entryY=0.5;entryDx=0;entryDy=0;" parent="1" source="ir-GsV6Cq0Wgvs_C2lxC-22" target="ir-GsV6Cq0Wgvs_C2lxC-27" edge="1">
          <mxGeometry width="50" height="50" relative="1" as="geometry">
            <mxPoint x="10" y="-1389" as="sourcePoint" />
            <mxPoint x="280" y="-1474" as="targetPoint" />
          </mxGeometry>
        </mxCell>
        <mxCell id="ir-GsV6Cq0Wgvs_C2lxC-39" value="" style="endArrow=none;html=1;rounded=0;exitX=1;exitY=0.3333333333333333;exitDx=0;exitDy=0;exitPerimeter=0;entryX=0;entryY=0.5;entryDx=0;entryDy=0;" parent="1" source="ir-GsV6Cq0Wgvs_C2lxC-22" target="ir-GsV6Cq0Wgvs_C2lxC-29" edge="1">
          <mxGeometry width="50" height="50" relative="1" as="geometry">
            <mxPoint x="10" y="-1389" as="sourcePoint" />
            <mxPoint x="280" y="-1311" as="targetPoint" />
          </mxGeometry>
        </mxCell>
        <mxCell id="ir-GsV6Cq0Wgvs_C2lxC-40" value="" style="endArrow=none;html=1;rounded=0;entryX=0;entryY=0.5;entryDx=0;entryDy=0;exitX=1;exitY=0.3333333333333333;exitDx=0;exitDy=0;exitPerimeter=0;" parent="1" source="ir-GsV6Cq0Wgvs_C2lxC-22" target="ir-GsV6Cq0Wgvs_C2lxC-30" edge="1">
          <mxGeometry width="50" height="50" relative="1" as="geometry">
            <mxPoint x="10" y="-1380" as="sourcePoint" />
            <mxPoint x="280" y="-1228" as="targetPoint" />
          </mxGeometry>
        </mxCell>
        <mxCell id="ir-GsV6Cq0Wgvs_C2lxC-41" value="" style="endArrow=none;html=1;rounded=0;entryX=0;entryY=0.5;entryDx=0;entryDy=0;exitX=1;exitY=0.3333333333333333;exitDx=0;exitDy=0;exitPerimeter=0;" parent="1" source="ir-GsV6Cq0Wgvs_C2lxC-22" target="ir-GsV6Cq0Wgvs_C2lxC-31" edge="1">
          <mxGeometry width="50" height="50" relative="1" as="geometry">
            <mxPoint x="10" y="-1389" as="sourcePoint" />
            <mxPoint x="280" y="-1148" as="targetPoint" />
          </mxGeometry>
        </mxCell>
        <mxCell id="ir-GsV6Cq0Wgvs_C2lxC-42" value="" style="endArrow=none;html=1;rounded=0;entryX=0;entryY=0.5;entryDx=0;entryDy=0;exitX=1;exitY=0.3333333333333333;exitDx=0;exitDy=0;exitPerimeter=0;" parent="1" source="ir-GsV6Cq0Wgvs_C2lxC-22" target="ir-GsV6Cq0Wgvs_C2lxC-32" edge="1">
          <mxGeometry width="50" height="50" relative="1" as="geometry">
            <mxPoint x="10" y="-1389" as="sourcePoint" />
            <mxPoint x="280" y="-1068" as="targetPoint" />
          </mxGeometry>
        </mxCell>
        <mxCell id="6F8o8oHA40rEvzCkaiHX-3" value="&lt;font style=&quot;font-size: 18px;&quot;&gt;智能对话&lt;/font&gt;" style="ellipse;whiteSpace=wrap;html=1;" vertex="1" parent="1">
          <mxGeometry x="310" y="-1100" width="120" height="64" as="geometry" />
        </mxCell>
        <mxCell id="6F8o8oHA40rEvzCkaiHX-4" value="" style="endArrow=none;html=1;rounded=0;entryX=0;entryY=0;entryDx=0;entryDy=0;exitX=1;exitY=0.3333333333333333;exitDx=0;exitDy=0;exitPerimeter=0;" edge="1" parent="1" source="ir-GsV6Cq0Wgvs_C2lxC-22" target="6F8o8oHA40rEvzCkaiHX-3">
          <mxGeometry width="50" height="50" relative="1" as="geometry">
            <mxPoint x="10" y="-1389" as="sourcePoint" />
            <mxPoint x="320" y="-1158" as="targetPoint" />
          </mxGeometry>
        </mxCell>
      </root>
    </mxGraphModel>
  </diagram>
</mxfile>
